PathFileType  4	(X/Y/Z) C:\Users\HPL 1\Documents/Temp/Sub278498/Files_W_HJCs/
DataRate	CameraRate	NumFrames	NumMarkers	Units	OrigDataRate	OrigDataStartFrame	OrigNumFrames
50.0	50.0	9	42	mm	50.0	86	227
Frame#	Time  	r_knee			r_shank(antsup)			r_ankle			r_calc			r_5meta			r_toe			L_knee			L_shank(ant_sup)			L_ankle			L_calc			L_5meta			L_toe			r_mknee			r_mankle			L_mknee			L_mankle			r_sh2			r_sh3			r_sh4			L_sh2			L_sh3			r_thigh1			r_thigh2			r_thigh3			r_thigh4			r_thigh5			L_thigh1			L_thigh2			L_thigh3			L_thigh4			r.ASIS			r.PSIS			L.ASIS			L.PSIS			C7			R_Shoulder			L_Shoulder			Sternum			R_HJC			L_HJC			R_HJC_reg			L_HJC_reg			
		X1	Y1	Z1	X2	Y2	Z2	X3	Y3	Z3	X4	Y4	Z4	X5	Y5	Z5	X6	Y6	Z6	X7	Y7	Z7	X8	Y8	Z8	X9	Y9	Z9	X10	Y10	Z10	X11	Y11	Z11	X12	Y12	Z12	X13	Y13	Z13	X14	Y14	Z14	X15	Y15	Z15	X16	Y16	Z16	X17	Y17	Z17	X18	Y18	Z18	X19	Y19	Z19	X20	Y20	Z20	X21	Y21	Z21	X22	Y22	Z22	X23	Y23	Z23	X24	Y24	Z24	X25	Y25	Z25	X26	Y26	Z26	X27	Y27	Z27	X28	Y28	Z28	X29	Y29	Z29	X30	Y30	Z30	X31	Y31	Z31	X32	Y32	Z32	X33	Y33	Z33	X34	Y34	Z34	X35	Y35	Z35	X36	Y36	Z36	X37	Y37	Z37	X38	Y38	Z38	X39	Y39	Z39	X40	Y40	Z40	X41	Y41	Z41	X42	Y42	Z42	

86	1.70000	773.29120	578.81091	-409.15900	787.64288	491.83560	-404.38559	735.02032	114.20529	-408.96445	646.42841	71.30070	-451.98456	847.11707	39.38862	-382.31244	886.08466	73.64454	-445.07956	767.46954	573.37909	-732.33063	792.45782	455.94391	-733.63379	705.25977	113.38820	-732.13641	629.71539	73.48635	-681.33612	821.00525	42.57089	-777.83173	868.07050	71.13321	-721.38690	770.92224	557.96301	-535.15527	746.94727	120.74304	-505.18781	785.59973	562.70044	-610.05029	736.78241	120.70764	-642.27118	784.31775	371.62219	-401.22760	712.72614	491.56851	-392.30890	702.33350	375.70438	-385.69449	704.77679	476.04532	-752.21252	692.53394	354.02899	-753.65704	841.34448	898.87823	-392.78403	840.30841	783.91113	-395.73947	794.64026	750.80634	-383.43021	728.16791	892.98334	-382.01981	733.68152	775.94818	-393.80518	854.83655	840.06921	-752.65881	856.58502	701.91614	-743.66779	739.54065	838.45801	-771.26758	744.38477	704.02130	-752.10010	864.54034	1094.93506	-446.83264	675.38361	1126.91895	-539.50793	873.28107	1096.31018	-705.03217	683.47852	1125.71411	-622.12341	725.29462	1609.18042	-587.77490	768.05835	1582.23694	-422.62161	790.75262	1575.09753	-764.18451	864.83069	1534.10107	-580.61987	795.67708	1006.29879	-459.05373	802.73810	1007.69379	-695.30869	790.28850	1019.03336	-489.51019	806.91437	1016.55878	-659.19138
87	1.72000	773.23132	578.81989	-409.15231	787.62585	491.83588	-404.34576	735.01746	114.17991	-408.94086	646.40887	71.33772	-451.98737	847.13043	39.41451	-382.24258	886.06702	73.66961	-445.07520	767.44983	573.37164	-732.32031	792.39624	455.91193	-733.66180	705.31732	113.36243	-732.12140	629.71680	73.47707	-681.29633	820.97430	42.55714	-777.85199	868.05811	71.11437	-721.35864	770.76465	557.96729	-535.16461	746.93793	120.70712	-505.16727	785.58209	562.71246	-610.03925	736.84076	120.74270	-642.26074	784.25867	371.64102	-401.25012	712.64691	491.55801	-392.31500	702.29779	375.65881	-385.70447	704.75848	476.04468	-752.22333	692.50360	354.02310	-753.66107	841.34814	898.90900	-392.79062	840.14142	783.87994	-395.72241	794.62427	750.79706	-383.41077	728.17712	893.02979	-382.05859	733.66315	776.01886	-393.79990	854.81354	840.03241	-752.65076	856.59839	701.90942	-743.64014	739.53192	838.45654	-771.28186	744.28387	703.99402	-752.07202	864.55920	1094.85864	-446.83606	675.47052	1126.93518	-539.45245	873.14337	1096.16382	-704.99512	683.59326	1125.68530	-622.10968	725.33807	1609.18103	-587.69122	768.08453	1582.20093	-422.56393	790.93042	1575.09546	-764.07635	864.93384	1534.17834	-580.61407	795.66517	1006.26109	-459.00361	802.65054	1007.58047	-695.26126	790.18459	1019.02766	-489.49270	806.85562	1016.46242	-659.13756
88	1.74000	773.16266	578.82275	-409.17548	787.52216	491.83380	-404.39902	734.99597	114.21183	-408.95151	646.41644	71.29194	-452.02194	847.11865	39.38800	-382.28598	886.05219	73.64038	-445.07928	767.44659	573.35596	-732.32349	792.43127	455.93692	-733.67828	705.27502	113.38263	-732.13416	629.68115	73.48092	-681.29327	820.99774	42.57000	-777.85693	868.07416	71.11821	-721.39349	770.75116	557.95941	-535.19812	746.96075	120.75116	-505.18658	785.57306	562.70551	-610.06219	736.79913	120.67716	-642.30347	784.21820	371.68201	-401.21207	712.62280	491.58499	-392.36386	702.21326	375.67990	-385.71671	704.70978	476.02521	-752.21509	692.59882	354.04306	-753.66473	841.39276	898.94318	-392.79245	840.06439	783.90277	-395.69611	794.56561	750.84833	-383.43228	728.12079	893.12054	-382.01758	733.67206	776.03979	-393.85434	854.87512	840.02148	-752.64954	856.61603	701.87372	-743.67664	739.56665	838.46973	-771.30054	744.41351	704.06689	-752.09070	864.60858	1094.85535	-446.79865	675.50049	1126.98047	-539.52454	873.38892	1096.26660	-704.99597	683.71075	1125.84937	-622.18152	725.34296	1609.13538	-587.69104	768.08228	1582.21460	-422.60275	791.00122	1575.11182	-764.05981	865.07013	1534.24744	-580.56445	795.67518	1006.27055	-459.07183	802.81860	1007.71420	-695.32403	790.25764	1018.90747	-489.64993	807.10991	1016.58579	-659.31049
89	1.76000	773.09296	578.83093	-409.17706	787.50140	491.84476	-404.35672	734.98804	114.18455	-408.96155	646.42743	71.17935	-452.08203	847.11670	39.39662	-382.27975	886.06818	73.64075	-445.09766	767.48962	573.33801	-732.34460	792.43872	455.91925	-733.66333	705.30927	113.33485	-732.15179	629.72449	73.42355	-681.31586	820.99823	42.49904	-777.85699	868.07904	71.03770	-721.40601	770.77112	557.97168	-535.16699	746.95245	120.74234	-505.21313	785.54865	562.74744	-610.06866	736.79340	120.72253	-642.31958	784.22900	371.68442	-401.25079	712.54761	491.57925	-392.37323	702.21539	375.67041	-385.73621	704.71381	476.05627	-752.22357	692.50854	354.09286	-753.67224	841.31665	898.91040	-392.80185	840.15546	783.96576	-395.70050	794.52570	750.86908	-383.46683	728.16736	893.10553	-382.15836	733.62292	776.04596	-394.05362	854.90814	840.01404	-752.65192	856.63959	701.88422	-743.67212	739.61157	838.47766	-771.31335	744.49829	704.02582	-752.17316	864.67010	1094.83105	-446.84372	675.58197	1126.95251	-539.58398	873.23346	1096.13232	-704.92926	683.81140	1125.82849	-622.22809	725.40967	1609.17493	-587.73706	768.12311	1582.19006	-422.61920	791.07910	1575.09473	-764.02161	865.18048	1534.31006	-580.50189	795.68246	1006.26285	-459.05153	802.77260	1007.59926	-695.30596	790.23350	1018.84673	-489.70047	807.11954	1016.54034	-659.27857
90	1.78000	773.11084	578.86102	-409.17429	787.54407	491.85251	-404.35312	734.99597	114.21661	-408.96014	646.41748	71.16727	-452.08258	847.10913	39.38156	-382.28873	886.06226	73.60657	-445.10950	767.47809	573.32922	-732.35376	792.44629	455.94745	-733.68048	705.31042	113.35306	-732.16425	629.67346	73.36299	-681.34814	820.99316	42.48529	-777.84680	868.08069	71.03998	-721.41766	770.75610	557.96936	-535.16870	746.94043	120.77225	-505.22256	785.61969	562.74408	-610.06116	736.77582	120.72011	-642.30762	784.22803	371.70648	-401.26602	712.57330	491.57867	-392.36279	702.16418	375.72177	-385.71960	704.72723	476.04285	-752.25476	692.40436	354.13809	-753.63837	841.38629	898.94568	-392.86963	840.10925	783.93744	-395.68887	794.57281	750.85596	-383.50131	728.22131	893.16980	-382.20865	733.62671	776.05994	-394.10526	854.94250	839.99762	-752.64087	856.61444	701.86963	-743.66376	739.67255	838.50476	-771.38666	744.48663	704.13409	-752.22717	864.74243	1094.84387	-446.83716	675.65961	1126.93799	-539.59784	873.81238	1096.40417	-704.99927	683.92114	1125.74475	-622.23651	725.40118	1609.11719	-587.74072	768.17383	1582.15161	-422.62360	791.27661	1575.10510	-764.05774	865.28125	1534.38135	-580.48792	795.90617	1006.22417	-459.15034	803.21244	1007.78811	-695.39679	790.45381	1019.05702	-489.67424	807.41221	1016.60766	-659.30629
91	1.80000	773.14825	578.88660	-409.18875	787.51855	491.87329	-404.42642	735.01477	114.19050	-408.98413	646.43225	71.17506	-452.08002	847.09271	39.39220	-382.30457	886.05426	73.63322	-445.10162	767.51233	573.33838	-732.33862	792.40118	455.92130	-733.65033	705.30951	113.34069	-732.17316	629.70142	73.37006	-681.37433	821.00067	42.47986	-777.83563	868.04889	71.05231	-721.43640	770.77441	557.97766	-535.18726	746.94501	120.74345	-505.19138	785.55084	562.78552	-610.07233	736.65930	120.69730	-642.31067	784.20337	371.69702	-401.24307	712.55322	491.60342	-392.38165	702.27826	375.72061	-385.73737	704.76563	476.04211	-752.24438	692.49451	354.08426	-753.69452	841.43304	898.98389	-392.83237	840.35852	783.99939	-395.78366	794.58679	750.85498	-383.54706	728.22681	893.15070	-382.18982	733.69690	776.06305	-394.03259	854.94983	840.02264	-752.71210	856.63446	701.88269	-743.71252	739.63727	838.47705	-771.34344	744.47217	704.27850	-752.25922	864.83612	1094.82178	-446.86633	675.74060	1126.95984	-539.63672	873.92798	1096.37708	-704.99512	683.99658	1125.78748	-622.25928	725.42981	1609.12622	-587.79724	768.21930	1582.13232	-422.64841	791.41058	1575.12878	-764.07257	865.38983	1534.42395	-580.49158	795.95939	1006.22040	-459.17186	803.28610	1007.78614	-695.41767	790.54943	1019.02843	-489.71454	807.49775	1016.62175	-659.32661
92	1.82000	773.15588	578.89838	-409.17813	787.54169	491.88818	-404.37323	735.00806	114.22253	-408.99222	646.39374	71.25563	-452.04730	847.10669	39.38919	-382.30920	886.06311	73.64441	-445.10751	767.46552	573.38208	-732.32037	792.41345	455.90344	-733.66754	705.29211	113.37720	-732.13910	629.68176	73.44304	-681.35663	821.01770	42.50438	-777.82623	868.06384	71.08152	-721.43390	770.78253	558.02551	-535.17975	746.96808	120.78429	-505.23911	785.63995	562.79987	-610.11298	736.78662	120.69453	-642.28101	784.21082	371.71188	-401.27957	712.55383	491.60272	-392.38730	702.19885	375.67831	-385.70804	704.76965	476.07574	-752.23065	692.51306	354.03052	-753.67407	841.48877	898.93805	-392.87158	840.36841	783.94452	-395.81674	794.65070	750.87610	-383.57578	728.29620	893.12128	-382.26648	733.69086	776.05927	-394.12659	855.02588	839.98029	-752.72601	856.61340	701.84027	-743.73218	739.65833	838.49371	-771.29565	744.46796	704.17975	-752.17834	864.92267	1094.79114	-446.91400	675.83026	1127.01758	-539.58582	874.00977	1096.32678	-704.98126	684.05298	1125.78735	-622.24976	725.37854	1609.17456	-587.90503	768.25183	1582.12244	-422.70535	791.56085	1575.18176	-764.09149	865.49988	1534.52649	-580.57397	796.01975	1006.21897	-459.15808	803.30945	1007.75839	-695.40520	790.61140	1019.12178	-489.67063	807.47955	1016.59808	-659.24802
93	1.84000	773.15424	578.89465	-409.19003	787.46802	491.86526	-404.37485	735.00623	114.22017	-408.99960	646.39844	71.25531	-452.04980	847.10052	39.41252	-382.27957	886.02386	73.63662	-445.07864	767.44348	573.37653	-732.33234	792.40234	455.89630	-733.69781	705.24878	113.38289	-732.13983	629.70074	73.46210	-681.33698	820.99091	42.53477	-777.81183	868.05389	71.11464	-721.39728	770.79431	558.00500	-535.18616	746.95782	120.74400	-505.22824	785.76129	562.81592	-610.06390	736.69751	120.68845	-642.26678	784.20776	371.71725	-401.23285	712.57599	491.60764	-392.38986	702.20099	375.69943	-385.73734	704.74408	476.04236	-752.20795	692.54077	354.09555	-753.65717	841.55402	898.89276	-392.90027	840.54803	783.97369	-395.86053	794.71967	750.84283	-383.60941	728.39685	893.14844	-382.16406	733.75360	776.06384	-394.04807	854.97949	839.95740	-752.72150	856.60754	701.83990	-743.76166	739.67291	838.47699	-771.25519	744.41528	704.25494	-752.16833	865.03033	1094.73767	-446.87976	675.97174	1127.02588	-539.57916	874.11505	1096.27515	-705.00256	684.13409	1125.80981	-622.20691	725.41589	1609.18262	-588.01776	768.25122	1582.13391	-422.76074	791.70251	1575.18933	-764.11841	865.57373	1534.59363	-580.54010	796.10190	1006.18856	-459.14808	803.37189	1007.73394	-695.39577	790.74676	1019.06080	-489.60772	807.50316	1016.56434	-659.23336
94	1.86000	773.12720	578.90790	-409.22510	787.49176	491.86044	-404.42007	735.00110	114.21352	-408.97565	646.40698	71.26118	-452.05402	847.11084	39.39500	-382.30817	886.03448	73.65433	-445.06839	767.46753	573.38293	-732.27783	792.45050	455.91727	-733.62439	705.27454	113.37184	-732.12000	629.70007	73.46503	-681.31372	820.96881	42.54939	-777.82574	868.05872	71.12431	-721.41321	770.82178	558.03510	-535.17645	746.97565	120.77571	-505.23288	785.61517	562.74597	-610.04456	736.76813	120.70182	-642.25165	784.24176	371.71945	-401.25098	712.57489	491.63046	-392.40051	702.23633	375.72293	-385.75714	704.77124	476.02274	-752.20618	692.52264	354.06519	-753.69208	841.66980	898.85809	-392.86777	840.62170	783.94763	-395.88541	794.75269	750.83228	-383.57166	728.48212	893.11694	-382.09427	733.80859	776.05963	-393.98734	855.04681	839.96631	-752.74371	856.62891	701.84631	-743.75464	739.67297	838.49847	-771.22034	744.32648	704.06317	-752.04065	865.17200	1094.70532	-446.84494	676.09595	1127.07495	-539.56610	874.27850	1096.25830	-705.00275	684.21198	1125.84131	-622.20752	725.40741	1609.15991	-588.06915	768.22107	1582.15369	-422.82983	791.83728	1575.22607	-764.18640	865.67554	1534.71655	-580.59314	796.19378	1006.18509	-459.14001	803.47296	1007.73849	-695.38737	790.89055	1019.08328	-489.52349	807.55230	1016.55069	-659.18169
